<svg width="500" height="500" viewBox="0 0 500 500" fill="none" xmlns="http://www.w3.org/2000/svg">
<rect width="500" height="500" rx="57" fill="#F3EAD3"/>
<path d="M358.49 185C364.856 185 370.736 186.429 376.128 189.288C381.521 192.146 386.263 196.239 390.356 201.567V193.771C390.356 191.367 390.811 189.678 391.72 188.703C392.695 187.664 394.287 187.144 396.496 187.144H411.99C414.199 187.144 415.758 187.664 416.668 188.703C417.642 189.678 418.13 191.367 418.13 193.771C418.13 196.174 417.642 197.896 416.668 198.936C415.758 199.91 414.199 200.397 411.99 200.397H403.999V301.747H413.939C416.148 301.747 417.707 302.234 418.617 303.208C419.592 304.248 420.079 305.97 420.079 308.373C420.079 310.777 419.592 312.466 418.617 313.441C417.707 314.48 416.148 315 413.939 315H372.62C370.411 315 368.819 314.48 367.845 313.441C366.935 312.466 366.481 310.777 366.481 308.373C366.481 305.97 366.935 304.248 367.845 303.208C368.819 302.234 370.411 301.747 372.62 301.747H389.382V263.253C381.001 273.973 370.703 279.333 358.49 279.333C350.434 279.333 343.222 277.449 336.855 273.681C330.489 269.848 325.486 264.39 321.848 257.309C318.21 250.162 316.391 241.782 316.391 232.166C316.391 222.551 318.21 214.203 321.848 207.121C325.486 199.975 330.489 194.518 336.855 190.75C343.222 186.917 350.434 185 358.49 185ZM359.464 199.423C353.682 199.423 348.712 200.82 344.554 203.613C340.396 206.342 337.213 210.175 335.004 215.112C332.86 220.05 331.788 225.735 331.788 232.166C331.788 238.598 332.86 244.283 335.004 249.22C337.213 254.158 340.396 258.023 344.554 260.817C348.712 263.546 353.682 264.91 359.464 264.91C365.246 264.91 370.379 263.611 374.861 261.012C379.409 258.413 382.95 254.645 385.484 249.708C388.082 244.77 389.382 238.923 389.382 232.166C389.382 225.41 388.082 219.563 385.484 214.625C382.95 209.688 379.409 205.92 374.861 203.321C370.379 200.722 365.246 199.423 359.464 199.423Z" fill="#252221"/>
<path d="M348.124 301.462H309.502C307.293 301.462 305.701 301.949 304.727 302.924C303.817 303.963 303.362 305.685 303.362 308.089C303.362 310.493 303.817 312.182 304.727 313.156C305.701 314.196 307.293 314.716 309.502 314.716H348.124C350.333 314.716 351.892 314.196 352.802 313.156C353.776 312.182 354.263 310.493 354.263 308.089C354.263 305.685 353.776 303.963 352.802 302.924C351.892 301.949 350.333 301.462 348.124 301.462Z" fill="#252221"/>
<path d="M322.502 301.462H281.183C278.974 301.462 277.382 301.949 276.408 302.924C275.498 303.963 275.043 305.685 275.043 308.089C275.043 310.493 275.498 312.182 276.408 313.156C277.382 314.196 278.974 314.716 281.183 314.716H322.502C324.711 314.716 326.27 314.196 327.18 313.156C328.154 312.182 328.642 310.493 328.642 308.089C328.642 305.685 328.154 303.963 327.18 302.924C326.27 301.949 324.711 301.462 322.502 301.462Z" fill="#252221"/>
<path d="M294.183 301.462H252.864C250.655 301.462 249.063 301.949 248.089 302.924C247.179 303.963 246.725 305.685 246.725 308.089C246.725 310.493 247.179 312.182 248.089 313.156C249.063 314.196 250.655 314.716 252.864 314.716H294.183C296.392 314.716 297.952 314.196 298.861 313.156C299.836 312.182 300.323 310.493 300.323 308.089C300.323 305.685 299.836 303.963 298.861 302.924C297.952 301.949 296.392 301.462 294.183 301.462Z" fill="#252221"/>
<path d="M268.562 301.462H227.242C225.033 301.462 223.442 301.949 222.467 302.924C221.558 303.963 221.103 305.685 221.103 308.089C221.103 310.493 221.558 312.182 222.467 313.156C223.442 314.196 225.033 314.716 227.242 314.716H268.562C270.771 314.716 272.33 314.196 273.239 313.156C274.214 312.182 274.701 310.493 274.701 308.089C274.701 305.685 274.214 303.963 273.239 302.924C272.33 301.949 270.771 301.462 268.562 301.462Z" fill="#252221"/>
<path d="M232.152 301.462H190.832C188.623 301.462 187.032 301.949 186.057 302.924C185.148 303.963 184.693 305.685 184.693 308.089C184.693 310.493 185.148 312.182 186.057 313.156C187.032 314.196 188.623 314.716 190.832 314.716H232.152C234.361 314.716 235.92 314.196 236.829 313.156C237.804 312.182 238.291 310.493 238.291 308.089C238.291 305.685 237.804 303.963 236.829 302.924C235.92 301.949 234.361 301.462 232.152 301.462Z" fill="#252221"/>
<path d="M199.787 301.462H158.468C156.259 301.462 154.667 301.949 153.693 302.924C152.783 303.963 152.329 305.685 152.329 308.089C152.329 310.493 152.783 312.182 153.693 313.156C154.667 314.196 156.259 314.716 158.468 314.716H199.787C201.996 314.716 203.555 314.196 204.465 313.156C205.44 312.182 205.927 310.493 205.927 308.089C205.927 305.685 205.44 303.963 204.465 302.924C203.555 301.949 201.996 301.462 199.787 301.462Z" fill="#252221"/>
<path d="M175.514 301.462H134.195C131.986 301.462 130.394 301.949 129.42 302.924C128.51 303.963 128.055 305.685 128.055 308.089C128.055 310.493 128.51 312.182 129.42 313.156C130.394 314.196 131.986 314.716 134.195 314.716H175.514C177.723 314.716 179.282 314.196 180.192 313.156C181.166 312.182 181.654 310.493 181.654 308.089C181.654 305.685 181.166 303.963 180.192 302.924C179.282 301.949 177.723 301.462 175.514 301.462Z" fill="#252221"/>
<path d="M148.544 301.462H107.224C105.016 301.462 103.424 301.949 102.449 302.924C101.54 303.963 101.085 305.685 101.085 308.089C101.085 310.493 101.54 312.182 102.449 313.156C103.424 314.196 105.016 314.716 107.224 314.716H148.544C150.753 314.716 152.312 314.196 153.221 313.156C154.196 312.182 154.683 310.493 154.683 308.089C154.683 305.685 154.196 303.963 153.221 302.924C152.312 301.949 150.753 301.462 148.544 301.462Z" fill="#252221"/>
<path d="M126.968 301.462H85.6482C83.4393 301.462 81.8476 301.949 80.8731 302.924C79.9636 303.963 79.5088 305.685 79.5088 308.089C79.5088 310.493 79.9636 312.182 80.8731 313.156C81.8476 314.196 83.4393 314.716 85.6482 314.716H126.968C129.176 314.716 130.736 314.196 131.645 313.156C132.62 312.182 133.107 310.493 133.107 308.089C133.107 305.685 132.62 303.963 131.645 302.924C130.736 301.949 129.176 301.462 126.968 301.462Z" fill="#252221"/>
<path d="M245.057 185C254.477 185 262.5 186.917 269.127 190.75C275.819 194.518 280.951 199.78 284.524 206.537C288.098 213.228 290.144 220.96 290.664 229.73C290.664 231.939 290.176 233.498 289.202 234.408C288.292 235.317 286.733 235.772 284.524 235.772H213.97C214.424 245.452 217.283 252.794 222.545 257.796C227.873 262.734 235.376 265.202 245.057 265.202C251.034 265.202 256.946 264.455 262.793 262.961C268.64 261.402 273.772 259.355 278.19 256.822C279.294 256.237 280.301 255.945 281.211 255.945C283.485 255.945 285.336 257.666 286.766 261.109C287.35 262.474 287.643 263.708 287.643 264.813C287.643 267.411 286.213 269.425 283.355 270.855C278.352 273.388 272.44 275.435 265.619 276.994C258.797 278.553 251.943 279.333 245.057 279.333C235.246 279.333 226.866 277.449 219.914 273.681C212.963 269.913 207.668 264.488 204.03 257.406C200.391 250.325 198.572 241.912 198.572 232.166C198.572 222.876 200.554 214.658 204.517 207.511C208.48 200.365 213.97 194.843 220.986 190.945C228.003 186.982 236.026 185 245.057 185ZM245.057 199.13C237.066 199.13 230.439 201.177 225.176 205.27C219.979 209.298 216.568 214.918 214.944 222.129H274.487C273.122 214.658 269.972 208.973 265.034 205.075C260.161 201.112 253.502 199.13 245.057 199.13Z" fill="#252221"/>
<path d="M154.33 185C159.397 185 164.14 186.299 168.558 188.898C171.156 190.457 172.456 192.471 172.456 194.94C172.456 196.109 172.163 197.474 171.579 199.033C170.214 202.736 168.33 204.588 165.927 204.588C164.952 204.588 164.042 204.328 163.198 203.808C160.014 202.054 156.604 201.177 152.966 201.177C147.118 201.177 141.239 203.223 135.327 207.316C129.415 211.344 124.542 216.737 120.709 223.493C116.941 230.25 115.057 237.429 115.057 245.03V263.936H147.898C150.107 263.936 151.666 264.455 152.576 265.495C153.55 266.469 154.037 268.158 154.037 270.562C154.037 272.966 153.55 274.688 152.576 275.727C151.666 276.702 150.107 277.189 147.898 277.189H85.1394C82.9305 277.189 81.3388 276.702 80.3643 275.727C79.4548 274.688 79 272.966 79 270.562C79 268.158 79.4548 266.469 80.3643 265.495C81.3388 264.455 82.9305 263.936 85.1394 263.936H100.439V200.397H88.063C85.8541 200.397 84.2624 199.91 83.2879 198.936C82.3783 197.896 81.9235 196.174 81.9235 193.771C81.9235 191.367 82.3783 189.678 83.2879 188.703C84.2624 187.664 85.8541 187.144 88.063 187.144H107.943C110.152 187.144 111.711 187.664 112.621 188.703C113.595 189.678 114.082 191.367 114.082 193.771V213.456C117.201 207.739 120.969 202.736 125.387 198.448C129.805 194.16 134.515 190.847 139.517 188.508C144.52 186.169 149.457 185 154.33 185Z" fill="#252221"/>
</svg>
