<svg width="429" height="97" viewBox="0 0 429 97" fill="none" xmlns="http://www.w3.org/2000/svg">
<path d="M396.883 0C401.267 0 405.073 0.963542 408.301 2.89062C411.529 4.76953 414.01 7.49154 415.744 11.0566C417.479 14.6217 418.346 18.7891 418.346 23.5586V58.5352H424.271C425.91 58.5352 427.066 58.9206 427.74 59.6914C428.463 60.4141 428.824 61.6667 428.824 63.4492C428.824 65.2318 428.463 66.5085 427.74 67.2793C427.066 68.002 425.91 68.3633 424.271 68.3633H400.857C399.219 68.3633 398.039 68.002 397.316 67.2793C396.642 66.5085 396.305 65.2318 396.305 63.4492C396.305 61.6667 396.642 60.4141 397.316 59.6914C398.039 58.9206 399.219 58.5352 400.857 58.5352H407.506V24.6426C407.506 20.3548 406.518 16.9583 404.543 14.4531C402.568 11.9479 399.653 10.6953 395.799 10.6953C391.704 10.6953 387.874 11.8757 384.309 14.2363C380.792 16.597 377.973 19.849 375.854 23.9922C373.734 28.1354 372.674 32.7604 372.674 37.8672V58.5352H379.322C380.96 58.5352 382.117 58.9206 382.791 59.6914C383.514 60.4141 383.875 61.6667 383.875 63.4492C383.875 65.2318 383.514 66.5085 382.791 67.2793C382.117 68.002 380.96 68.3633 379.322 68.3633H355.908C354.27 68.3633 353.09 68.002 352.367 67.2793C351.693 66.5085 351.355 65.2318 351.355 63.4492C351.355 61.6667 351.693 60.4141 352.367 59.6914C353.09 58.9206 354.27 58.5352 355.908 58.5352H361.834V11.418H354.463C352.825 11.418 351.645 11.0566 350.922 10.334C350.247 9.56315 349.91 8.28646 349.91 6.50391C349.91 4.72135 350.247 3.46875 350.922 2.74609C351.645 1.97526 352.825 1.58984 354.463 1.58984H367.398C369.036 1.58984 370.193 1.97526 370.867 2.74609C371.59 3.46875 371.951 4.72135 371.951 6.50391V15.1758C375.131 10.2617 378.84 6.50391 383.08 3.90234C387.368 1.30078 391.969 0 396.883 0Z" fill="#F3EAD3"/>
<path d="M299.975 0C306.575 0 312.525 1.49349 317.824 4.48047C323.124 7.46745 327.267 11.6348 330.254 16.9824C333.289 22.2819 334.807 28.2799 334.807 34.9766C334.807 41.6732 333.289 47.6953 330.254 53.043C327.267 58.3424 323.124 62.4857 317.824 65.4727C312.525 68.4596 306.575 69.9531 299.975 69.9531C293.374 69.9531 287.424 68.4596 282.125 65.4727C276.826 62.4857 272.658 58.3424 269.623 53.043C266.636 47.6953 265.143 41.6732 265.143 34.9766C265.143 28.2799 266.636 22.2819 269.623 16.9824C272.658 11.6348 276.826 7.46745 282.125 4.48047C287.424 1.49349 293.374 0 299.975 0ZM299.975 10.6953C295.301 10.6953 291.182 11.7311 287.617 13.8027C284.1 15.8262 281.378 18.6927 279.451 22.4023C277.524 26.0638 276.561 30.2552 276.561 34.9766C276.561 39.6979 277.524 43.9134 279.451 47.623C281.378 51.2845 284.1 54.151 287.617 56.2227C291.182 58.2461 295.301 59.2578 299.975 59.2578C304.648 59.2578 308.743 58.2461 312.26 56.2227C315.825 54.151 318.571 51.2845 320.498 47.623C322.425 43.9134 323.389 39.6979 323.389 34.9766C323.389 30.2552 322.425 26.0638 320.498 22.4023C318.571 18.6927 315.825 15.8262 312.26 13.8027C308.743 11.7311 304.648 10.6953 299.975 10.6953Z" fill="#F3EAD3"/>
<path d="M207.258 0C211.979 0 216.339 1.0599 220.338 3.17969C224.337 5.29948 227.854 8.33464 230.889 12.2852V6.50391C230.889 4.72135 231.226 3.46875 231.9 2.74609C232.623 1.97526 233.803 1.58984 235.441 1.58984H246.932C248.57 1.58984 249.726 1.97526 250.4 2.74609C251.123 3.46875 251.484 4.72135 251.484 6.50391C251.484 8.28646 251.123 9.56315 250.4 10.334C249.726 11.0566 248.57 11.418 246.932 11.418H241.006V86.5742H248.377C250.015 86.5742 251.171 86.9355 251.846 87.6582C252.568 88.429 252.93 89.7057 252.93 91.4883C252.93 93.2708 252.568 94.5234 251.846 95.2461C251.171 96.0169 250.015 96.4023 248.377 96.4023H217.736C216.098 96.4023 214.918 96.0169 214.195 95.2461C213.521 94.5234 213.184 93.2708 213.184 91.4883C213.184 89.7057 213.521 88.429 214.195 87.6582C214.918 86.9355 216.098 86.5742 217.736 86.5742H230.166V58.0293C223.951 65.9785 216.315 69.9531 207.258 69.9531C201.284 69.9531 195.936 68.556 191.215 65.7617C186.493 62.9193 182.784 58.8724 180.086 53.6211C177.388 48.3216 176.039 42.1068 176.039 34.9766C176.039 27.8464 177.388 21.6556 180.086 16.4043C182.784 11.1048 186.493 7.05794 191.215 4.26367C195.936 1.42122 201.284 0 207.258 0ZM207.98 10.6953C203.693 10.6953 200.007 11.7311 196.924 13.8027C193.84 15.8262 191.48 18.6686 189.842 22.3301C188.252 25.9915 187.457 30.207 187.457 34.9766C187.457 39.7461 188.252 43.9616 189.842 47.623C191.48 51.2845 193.84 54.151 196.924 56.2227C200.007 58.2461 203.693 59.2578 207.98 59.2578C212.268 59.2578 216.074 58.2943 219.398 56.3672C222.771 54.4401 225.396 51.6458 227.275 47.9844C229.202 44.3229 230.166 39.987 230.166 34.9766C230.166 29.9661 229.202 25.6302 227.275 21.9688C225.396 18.3073 222.771 15.513 219.398 13.5859C216.074 11.6589 212.268 10.6953 207.98 10.6953Z" fill="#F3EAD3"/>
<path d="M199.57 86.3633H170.93C169.292 86.3633 168.111 86.7246 167.389 87.4473C166.714 88.2181 166.377 89.4948 166.377 91.2773C166.377 93.0599 166.714 94.3125 167.389 95.0352C168.111 95.806 169.292 96.1914 170.93 96.1914H199.57C201.208 96.1914 202.365 95.806 203.039 95.0352C203.762 94.3125 204.123 93.0599 204.123 91.2773C204.123 89.4948 203.762 88.2181 203.039 87.4473C202.365 86.7246 201.208 86.3633 199.57 86.3633Z" fill="#F3EAD3"/>
<path d="M180.57 86.3633H149.93C148.292 86.3633 147.111 86.7246 146.389 87.4473C145.714 88.2181 145.377 89.4948 145.377 91.2773C145.377 93.0599 145.714 94.3125 146.389 95.0352C147.111 95.806 148.292 96.1914 149.93 96.1914H180.57C182.208 96.1914 183.365 95.806 184.039 95.0352C184.762 94.3125 185.123 93.0599 185.123 91.2773C185.123 89.4948 184.762 88.2181 184.039 87.4473C183.365 86.7246 182.208 86.3633 180.57 86.3633Z" fill="#F3EAD3"/>
<path d="M159.57 86.3633H128.93C127.292 86.3633 126.111 86.7246 125.389 87.4473C124.714 88.2181 124.377 89.4948 124.377 91.2773C124.377 93.0599 124.714 94.3125 125.389 95.0352C126.111 95.806 127.292 96.1914 128.93 96.1914H159.57C161.208 96.1914 162.365 95.806 163.039 95.0352C163.762 94.3125 164.123 93.0599 164.123 91.2773C164.123 89.4948 163.762 88.2181 163.039 87.4473C162.365 86.7246 161.208 86.3633 159.57 86.3633Z" fill="#F3EAD3"/>
<path d="M140.57 86.3633H109.93C108.292 86.3633 107.111 86.7246 106.389 87.4473C105.714 88.2181 105.377 89.4948 105.377 91.2773C105.377 93.0599 105.714 94.3125 106.389 95.0352C107.111 95.806 108.292 96.1914 109.93 96.1914H140.57C142.208 96.1914 143.365 95.806 144.039 95.0352C144.762 94.3125 145.123 93.0599 145.123 91.2773C145.123 89.4948 144.762 88.2181 144.039 87.4473C143.365 86.7246 142.208 86.3633 140.57 86.3633Z" fill="#F3EAD3"/>
<path d="M113.57 86.3633H82.9297C81.2917 86.3633 80.1113 86.7246 79.3887 87.4473C78.7142 88.2181 78.377 89.4948 78.377 91.2773C78.377 93.0599 78.7142 94.3125 79.3887 95.0352C80.1113 95.806 81.2917 96.1914 82.9297 96.1914H113.57C115.208 96.1914 116.365 95.806 117.039 95.0352C117.762 94.3125 118.123 93.0599 118.123 91.2773C118.123 89.4948 117.762 88.2181 117.039 87.4473C116.365 86.7246 115.208 86.3633 113.57 86.3633Z" fill="#F3EAD3"/>
<path d="M89.5703 86.3633H58.9297C57.2917 86.3633 56.1113 86.7246 55.3887 87.4473C54.7142 88.2181 54.377 89.4948 54.377 91.2773C54.377 93.0599 54.7142 94.3125 55.3887 95.0352C56.1113 95.806 57.2917 96.1914 58.9297 96.1914H89.5703C91.2083 96.1914 92.3646 95.806 93.0391 95.0352C93.7617 94.3125 94.123 93.0599 94.123 91.2773C94.123 89.4948 93.7617 88.2181 93.0391 87.4473C92.3646 86.7246 91.2083 86.3633 89.5703 86.3633Z" fill="#F3EAD3"/>
<path d="M71.5703 86.3633H40.9297C39.2917 86.3633 38.1113 86.7246 37.3887 87.4473C36.7142 88.2181 36.377 89.4948 36.377 91.2773C36.377 93.0599 36.7142 94.3125 37.3887 95.0352C38.1113 95.806 39.2917 96.1914 40.9297 96.1914H71.5703C73.2083 96.1914 74.3646 95.806 75.0391 95.0352C75.7617 94.3125 76.123 93.0599 76.123 91.2773C76.123 89.4948 75.7617 88.2181 75.0391 87.4473C74.3646 86.7246 73.2083 86.3633 71.5703 86.3633Z" fill="#F3EAD3"/>
<path d="M51.5703 86.3633H20.9297C19.2917 86.3633 18.1113 86.7246 17.3887 87.4473C16.7142 88.2181 16.377 89.4948 16.377 91.2773C16.377 93.0599 16.7142 94.3125 17.3887 95.0352C18.1113 95.806 19.2917 96.1914 20.9297 96.1914H51.5703C53.2083 96.1914 54.3646 95.806 55.0391 95.0352C55.7617 94.3125 56.123 93.0599 56.123 91.2773C56.123 89.4948 55.7617 88.2181 55.0391 87.4473C54.3646 86.7246 53.2083 86.3633 51.5703 86.3633Z" fill="#F3EAD3"/>
<path d="M35.5703 86.3633H4.92969C3.29167 86.3633 2.11133 86.7246 1.38867 87.4473C0.714193 88.2181 0.376953 89.4948 0.376953 91.2773C0.376953 93.0599 0.714193 94.3125 1.38867 95.0352C2.11133 95.806 3.29167 96.1914 4.92969 96.1914H35.5703C37.2083 96.1914 38.3646 95.806 39.0391 95.0352C39.7617 94.3125 40.123 93.0599 40.123 91.2773C40.123 89.4948 39.7617 88.2181 39.0391 87.4473C38.3646 86.7246 37.2083 86.3633 35.5703 86.3633Z" fill="#F3EAD3"/>
<path d="M123.141 0C130.126 0 136.076 1.42122 140.99 4.26367C145.952 7.05794 149.758 10.9603 152.408 15.9707C155.058 20.9329 156.576 26.666 156.961 33.1699C156.961 34.8079 156.6 35.9642 155.877 36.6387C155.202 37.3132 154.046 37.6504 152.408 37.6504H100.088C100.425 44.8288 102.545 50.2728 106.447 53.9824C110.398 57.6439 115.962 59.4746 123.141 59.4746C127.573 59.4746 131.957 58.9206 136.293 57.8125C140.629 56.6562 144.435 55.1387 147.711 53.2598C148.53 52.8262 149.277 52.6094 149.951 52.6094C151.637 52.6094 153.01 53.8861 154.07 56.4395C154.504 57.4512 154.721 58.3665 154.721 59.1855C154.721 61.1126 153.661 62.6061 151.541 63.666C147.831 65.5449 143.447 67.0625 138.389 68.2188C133.33 69.375 128.247 69.9531 123.141 69.9531C115.866 69.9531 109.651 68.556 104.496 65.7617C99.3411 62.9674 95.4147 58.9447 92.7168 53.6934C90.0189 48.4421 88.6699 42.2031 88.6699 34.9766C88.6699 28.0872 90.1393 21.9928 93.0781 16.6934C96.0169 11.3939 100.088 7.29883 105.291 4.4082C110.494 1.4694 116.444 0 123.141 0ZM123.141 10.4785C117.215 10.4785 112.301 11.9961 108.398 15.0312C104.544 18.0182 102.015 22.1855 100.811 27.5332H144.965C143.953 21.9928 141.617 17.7773 137.955 14.8867C134.342 11.9479 129.404 10.4785 123.141 10.4785Z" fill="#F3EAD3"/>
<path d="M55.8613 0C59.6191 0 63.1361 0.963542 66.4121 2.89062C68.3392 4.04688 69.3027 5.54036 69.3027 7.37109C69.3027 8.23828 69.0859 9.25 68.6523 10.4062C67.6406 13.1523 66.2435 14.5254 64.4609 14.5254C63.7383 14.5254 63.0638 14.3327 62.4375 13.9473C60.0768 12.6465 57.5475 11.9961 54.8496 11.9961C50.5137 11.9961 46.1536 13.5137 41.7695 16.5488C37.3854 19.5358 33.7721 23.5345 30.9297 28.5449C28.1354 33.5553 26.7383 38.8789 26.7383 44.5156V58.5352H51.0918C52.7298 58.5352 53.8861 58.9206 54.5605 59.6914C55.2832 60.4141 55.6445 61.6667 55.6445 63.4492C55.6445 65.2318 55.2832 66.5085 54.5605 67.2793C53.8861 68.002 52.7298 68.3633 51.0918 68.3633H4.55273C2.91471 68.3633 1.73438 68.002 1.01172 67.2793C0.33724 66.5085 0 65.2318 0 63.4492C0 61.6667 0.33724 60.4141 1.01172 59.6914C1.73438 58.9206 2.91471 58.5352 4.55273 58.5352H15.8984V11.418H6.7207C5.08268 11.418 3.90234 11.0566 3.17969 10.334C2.50521 9.56315 2.16797 8.28646 2.16797 6.50391C2.16797 4.72135 2.50521 3.46875 3.17969 2.74609C3.90234 1.97526 5.08268 1.58984 6.7207 1.58984H21.4629C23.1009 1.58984 24.2572 1.97526 24.9316 2.74609C25.6543 3.46875 26.0156 4.72135 26.0156 6.50391V21.1016C28.3281 16.862 31.1224 13.1523 34.3984 9.97266C37.6745 6.79297 41.1673 4.33594 44.877 2.60156C48.5866 0.867188 52.248 0 55.8613 0Z" fill="#F3EAD3"/>
</svg>
